<?xml version="1.0" encoding="UTF-8" standalone="no"?>
<svg
   xmlns:dc="http://purl.org/dc/elements/1.1/"
   xmlns:cc="http://creativecommons.org/ns#"
   xmlns:rdf="http://www.w3.org/1999/02/22-rdf-syntax-ns#"
   xmlns:svg="http://www.w3.org/2000/svg"
   xmlns="http://www.w3.org/2000/svg"
   xmlns:sodipodi="http://sodipodi.sourceforge.net/DTD/sodipodi-0.dtd"
   xmlns:inkscape="http://www.inkscape.org/namespaces/inkscape"
   width="80.767776mm"
   height="57.839882mm"
   version="1.1"
   viewBox="-146.27271 629.76044 419.73804 300.58523"
   id="svg88"
   sodipodi:docname="example.svg"
   inkscape:version="1.0.1 (3bc2e813f5, 2020-09-07)">
  <metadata
     id="metadata94">
    <rdf:RDF>
      <cc:Work
         rdf:about="">
        <dc:format>image/svg+xml</dc:format>
        <dc:type
           rdf:resource="http://purl.org/dc/dcmitype/StillImage" />
        <dc:title>Animation sample</dc:title>
      </cc:Work>
    </rdf:RDF>
  </metadata>
  <defs
     id="defs92" />
  <sodipodi:namedview
     pagecolor="#ffffff"
     bordercolor="#666666"
     borderopacity="1"
     objecttolerance="10"
     gridtolerance="10"
     guidetolerance="10"
     inkscape:pageopacity="0"
     inkscape:pageshadow="2"
     inkscape:window-width="640"
     inkscape:window-height="480"
     id="namedview90"
     showgrid="false"
     inkscape:zoom="3.9824956"
     inkscape:cx="28.910612"
     inkscape:cy="126.75789"
     inkscape:current-layer="svg88"
     fit-margin-top="5"
     lock-margins="true"
     fit-margin-left="5"
     fit-margin-right="5"
     fit-margin-bottom="5" />
  <!--
	Exported with Concepts: Smarter Sketching
	Version: 887 on iOS 13.7
	https://concepts.app/
	-->
  <title
     id="title2">Animation sample</title>
  <rect
     style="fill:none;stroke:#000000;stroke-width:1.32"
     id="rectangle1"
     width="251.55519"
     height="141.23323"
     x="-72.03849"
     y="701.64734"
     inkscape:label="rectangle1" />
  <desc
     id="desc4">Drawing exported from Concepts: Smarter Sketching</desc>
  <g
     id="group1"
     style="display:inline"
     inkscape:label="group1"
     transform="translate(74.110073,72.311794)">
    <path
       id="path1"
       opacity="1"
       fill="none"
       stroke="#1c7aa2"
       stroke-width="1.837"
       stroke-opacity="1"
       stroke-linecap="round"
       stroke-linejoin="round"
       d="m -142.393,651.563 q 0.119,-0.015 1.015,-0.359 0.896,-0.344 1.82,-0.866 0.923,-0.521 1.414,-0.911 0.492,-0.391 0.966,-0.891 0.474,-0.501 1.084,-1.634 0.611,-1.134 0.916,-1.905 0.304,-0.772 0.481,-2.004 0.176,-1.232 0.176,-1.611 0,-0.379 -0.021,2.124 -0.022,2.502 0.289,6.64 0.311,4.137 0.456,6.248 0.145,2.11 0.172,2.814 0.026,0.704 0.019,1.219 -0.007,0.514 -0.032,0.801 -0.026,0.287 -0.039,0.36 -0.014,0.073 -0.053,0.192 -0.038,0.118 -0.138,0.463 -0.1,0.346 -0.223,1.419 -0.012,0.002 0.051,-0.114 0.063,-0.116 0.134,-0.244"
       inkscape:label="path1" />
    <path
       id="path2"
       opacity="1"
       fill="none"
       stroke="#1c7aa2"
       stroke-width="1.837"
       stroke-opacity="1"
       stroke-linecap="round"
       stroke-linejoin="round"
       d="m -108.141,649.938 q -0.171,0.024 -0.656,-0.035 -0.007,-0.002 -0.053,-0.184 -0.045,-0.183 0.713,-1.284 0.758,-1.102 1.62,-1.964 0.863,-0.862 1.74,-1.476 0.877,-0.614 1.865,-0.947 0.989,-0.332 1.78,-0.373 0.792,-0.042 1.118,-0.026 0.325,0.017 0.81,0.306 0.485,0.289 0.771,0.691 0.285,0.401 0.426,0.92 0.141,0.518 0.154,0.973 0.014,0.454 -0.095,0.957 -0.109,0.503 -0.727,1.59 -0.617,1.088 -2.22,3.094 -1.602,2.006 -2.579,3.035 -0.976,1.029 -1.703,2.415 -0.727,1.386 -0.955,2.129 -0.227,0.743 -0.215,1.007 0.012,0.264 0.072,0.373 0.06,0.11 0.129,0.175 0.07,0.066 0.632,0.172 0.562,0.107 2.32,-0.257 1.757,-0.363 3.21,-0.596 1.452,-0.232 2.615,-0.366 1.163,-0.133 1.631,-0.155 0.468,-0.021 0.759,-0.201 0.29,-0.18 0.432,-0.307"
       inkscape:label="path2" />
  </g>
  <g
     id="par_group2"
     inkscape:label="par_group2"
     transform="translate(74.110073,72.311794)">
    <g
       id="group21"
       inkscape:label="group21">
      <path
         id="path3"
         opacity="1"
         fill="none"
         stroke="#1c7aa2"
         stroke-width="1.837"
         stroke-opacity="1"
         stroke-linecap="round"
         stroke-linejoin="round"
         d="m -137.252,700.887 q -0.048,0.024 -1.195,-0.31 -0.046,-0.008 -0.062,-0.73 -0.016,-0.721 0.864,-1.957 0.879,-1.236 1.991,-2.206 1.112,-0.969 2.004,-1.493 0.892,-0.524 1.628,-0.677 0.736,-0.153 1.196,-0.108 0.459,0.046 0.887,0.31 0.428,0.263 0.745,0.823 0.317,0.56 0.271,1.271 -0.046,0.711 -0.272,1.203 -0.226,0.492 -0.86,1.443 -0.634,0.95 -1.446,1.82 -0.812,0.871 -1.721,1.522 -0.909,0.65 -1.908,0.91 -0.02,0.03 0.259,-0.076 0.279,-0.106 1.099,-0.316 0.82,-0.21 2.436,-0.264 1.616,-0.054 2.63,0.058 1.013,0.111 1.847,0.424 0.833,0.314 1.37,0.702 0.536,0.387 0.791,0.795 0.255,0.408 0.355,1.275 0.1,0.868 0.008,1.449 -0.093,0.581 -0.215,0.955 -0.123,0.374 -0.541,1.211 -0.418,0.838 -1.519,1.696 -1.101,0.858 -2.592,1.499 -1.491,0.642 -2.537,1.115 -1.046,0.473 -1.978,0.735 -0.932,0.262 -2.501,0.321 -1.569,0.059 -2.999,-0.255 0.395,-0.292 0.548,-0.395"
         inkscape:label="path3" />
      <path
         id="path4"
         opacity="1"
         fill="none"
         stroke="#1c7aa2"
         stroke-width="1.736"
         stroke-opacity="1"
         stroke-linecap="round"
         stroke-linejoin="round"
         d="m -107.217,691.589 -0.03,0.108 q 0.016,0.043 -0.576,1.52 -0.591,1.478 -1.476,2.986 -0.885,1.509 -1.269,2.274 -0.383,0.765 -0.585,1.356 -0.201,0.591 -0.173,0.965 0.029,0.374 0.087,0.452 0.059,0.079 0.087,0.088 0.028,0.009 0.125,0.072 0.096,0.062 0.909,0.21 0.813,0.147 3.019,-0.433 2.206,-0.58 3.39,-0.924 1.185,-0.344 1.792,-0.464 0.607,-0.12 1.279,-0.11 l -0.046,0.097 -0.082,0.125 q 0,0.042 -0.497,0.368 -0.498,0.327 -1.152,0.512 -0.654,0.186 -1.182,0.254 -0.527,0.069 -0.779,0.084 -0.252,0.015 -0.703,0.045 -0.45,0.03 -0.875,-0.004 -0.004,0.005 0.744,-1.621 0.748,-1.627 1.657,-4.123 -0.058,-0.062 -0.754,1.441 -0.695,1.503 -1.241,3.003 -0.546,1.499 -1.192,3.151 -0.646,1.653 -1.062,3.046 -0.417,1.393 -0.802,2.746 -0.385,1.352 -0.622,2.359 -0.237,1.006 -0.343,1.847 -0.106,0.841 -0.008,1.126 0.098,0.285 0.215,0.48"
         inkscape:label="path4" />
    </g>
    <g
       id="group22"
       inkscape:label="group22">
      <path
         id="path5"
         opacity="1"
         fill="none"
         stroke="#1c7aa2"
         stroke-width="1.837"
         stroke-opacity="1"
         stroke-linecap="round"
         stroke-linejoin="round"
         d="m -126.519,732.166 q -0.033,-0.009 -1.754,0.034 -1.722,0.043 -3.333,0.124 -1.612,0.081 -2.698,0.097 -1.087,0.015 -3.509,1.055 l -0.093,0.237 q -0.033,0.197 -0.111,1.195 -0.077,0.997 0.89,7.005 0.031,0.026 0.523,-0.351 0.493,-0.376 1.325,-0.716 0.832,-0.34 1.79,-0.394 0.958,-0.054 2.146,0.41 1.187,0.465 1.958,0.955 0.772,0.49 1.433,1.375 0.661,0.885 0.915,1.954 0.255,1.069 0.225,1.786 -0.03,0.716 -0.359,1.551 -0.329,0.835 -0.756,1.336 -0.427,0.501 -1.95,1.079 -1.523,0.579 -2.929,0.867 -1.405,0.288 -2.249,0.345 -0.843,0.057 -1.65,0.091 -0.807,0.034 -1.482,-0.175 -0.675,-0.21 -0.917,-0.362 -0.242,-0.152 -0.319,-0.218 -0.077,-0.066 -0.196,-0.274 0.012,-0.043 0.229,-0.257 0.217,-0.213 0.452,-0.385"
         inkscape:label="path5" />
      <path
         id="path6"
         opacity="1"
         fill="none"
         stroke="#1c7aa2"
         stroke-width="1.837"
         stroke-opacity="1"
         stroke-linecap="round"
         stroke-linejoin="round"
         d="m -106.5,732.044 q -0.196,-0.05 -0.207,-0.054 -0.012,-0.004 -0.348,0.047 -0.336,0.051 -0.439,0.117 -0.102,0.066 -0.964,0.618 -0.862,0.552 -2.023,1.808 -1.16,1.256 -1.982,2.602 -0.822,1.347 -1.337,2.223 -0.515,0.877 -1.301,2.456 -0.786,1.579 -1.176,2.492 -0.39,0.913 -0.691,2.027 -0.302,1.113 -0.423,1.852 -0.121,0.739 -0.208,1.675 -0.087,0.936 -0.009,1.744 0.078,0.809 0.265,1.302 0.187,0.494 0.657,1.076 0.47,0.581 0.773,0.816 0.303,0.234 0.641,0.321 0.338,0.086 1.11,0.112 0.771,0.025 2.173,-0.605 1.402,-0.63 2.697,-1.607 1.296,-0.977 2.201,-1.946 0.905,-0.968 1.361,-1.685 0.456,-0.716 0.751,-1.787 0.295,-1.07 0.35,-1.781 0.055,-0.712 -0.039,-1.216 -0.095,-0.505 -0.33,-0.833 -0.235,-0.328 -0.791,-0.7 -0.556,-0.373 -2.277,-0.526 -1.721,-0.153 -3.045,-0.141 -1.324,0.012 -2.043,0.096 -0.718,0.084 -1.046,0.207 -0.328,0.122 -0.717,0.422 -0.388,0.3 -0.545,0.549 -0.157,0.249 -0.262,0.452"
         inkscape:label="path6" />
    </g>
  </g>
  <rect
     style="fill:none;stroke:#000000;stroke-width:1.32"
     id="rectangle2"
     width="366.44955"
     height="247.29672"
     x="-119.62846"
     y="656.40466"
     inkscape:label="rectangle2" />
  <g
     id="g1192"
     transform="translate(74.110073,72.311794)">
    <g
       id="g948">
      <path
         id="STROKE_27e54d50-992e-4521-b64f-354cceeb983b"
         opacity="1"
         fill="none"
         stroke="#1c7aa2"
         stroke-width="1.837"
         stroke-opacity="1"
         stroke-linecap="round"
         stroke-linejoin="round"
         d="m -61.754,638.678 q -0.165,-0.495 0.641,-1.483 0.807,-0.988 1.424,-1.488 0.617,-0.501 1.538,-1.042 0.921,-0.541 1.659,-0.833 0.739,-0.293 1.721,-0.18 0.063,0.065 0.056,0.734 -0.008,0.668 -1.721,3.422 -1.713,2.754 -2.685,4.32 -0.972,1.565 -1.366,2.293 -0.393,0.729 -0.869,1.659 -0.476,0.931 -0.717,1.585 -0.24,0.654 -0.266,1.167 -0.027,0.512 0.023,0.85 0.05,0.339 0.319,0.574 0.269,0.235 0.469,0.287 0.199,0.053 0.233,0.079 0.034,0.027 2.217,-0.036 0.002,0.289 -0.003,0.296 -0.031,0.027 -0.594,1.296 -0.562,1.269 -0.694,2.844 -0.133,1.576 -0.058,2.439 0.075,0.864 0.412,2.292 0.337,1.428 0.373,2.521 0.036,1.092 0.002,1.645 -0.035,0.553 -0.715,1.573 -0.679,1.02 -2.443,2.307 -1.763,1.287 -4.615,2.655 l 0.345,0.096" />
      <path
         id="STROKE_623fce2e-fa47-4dee-9c39-a26b1ec2e1aa"
         opacity="1"
         fill="none"
         stroke="#1c7aa2"
         stroke-width="1.807"
         stroke-opacity="1"
         stroke-linecap="round"
         stroke-linejoin="round"
         d="m -37.201,640.568 -0.02,0.028 q -0.023,0.192 -0.416,1.058 -0.394,0.865 -1.112,2.16 -0.718,1.296 -1.674,3.249 -0.956,1.953 -1.043,2.123" />
      <path
         id="STROKE_2f185ef9-4440-45f7-80b6-19c4a5a7d6fa"
         opacity="1"
         fill="none"
         stroke="#1c7aa2"
         stroke-width="1.759"
         stroke-opacity="1"
         stroke-linecap="round"
         stroke-linejoin="round"
         d="m -44.412,641.205 q -0.188,-0.057 -0.238,-0.119 -0.065,-0.018 1.84,-0.779 1.906,-0.761 4.089,-1.369 2.182,-0.609 3.559,-0.857 1.377,-0.248 2.095,-0.344 0.718,-0.095 1.421,-0.088 0.703,0.007 1.034,0.121 0.332,0.113 0.579,0.268" />
      <path
         id="STROKE_49906c92-e2e5-43ac-b6ff-443184c904b1"
         opacity="1"
         fill="none"
         stroke="#1c7aa2"
         stroke-width="1.837"
         stroke-opacity="1"
         stroke-linecap="round"
         stroke-linejoin="round"
         d="m -26.163,638.635 -0.083,-0.018 q -0.065,-0.003 -0.132,0.033 -0.067,0.036 -0.224,0.187 -0.158,0.15 -0.246,0.313 -0.088,0.162 -5.516,10.481 0.047,0.057 0.826,-1.035 0.778,-1.093 1.469,-1.912 0.692,-0.819 1.176,-1.222 0.484,-0.403 0.868,-0.513 0.385,-0.11 0.544,-0.078 0.16,0.031 0.321,0.151 0.162,0.119 0.248,0.49 0.086,0.371 0.002,0.795 -0.083,0.424 -0.513,1.174 -0.429,0.75 -1.018,1.588 -0.589,0.838 -0.946,1.488 -0.008,0.073 0.22,-0.028 0.228,-0.101 0.452,-0.256" />
      <path
         id="STROKE_7df0621d-69d4-4424-86ee-a19abb17dbd8"
         opacity="1"
         fill="none"
         stroke="#1c7aa2"
         stroke-width="1.837"
         stroke-opacity="1"
         stroke-linecap="round"
         stroke-linejoin="round"
         d="m -22.041,645.403 q -0.012,0.013 -0.058,0.022 -0.046,0.008 -0.517,0.644 -0.472,0.635 -0.903,1.545 -0.432,0.91 -0.472,1.614 0.016,0.004 0.242,-0.144" />
      <path
         id="STROKE_e769ddcf-734a-47cb-a09b-840b2a9ebc5d"
         opacity="1"
         fill="none"
         stroke="#1c7aa2"
         stroke-width="1.837"
         stroke-opacity="1"
         stroke-linecap="round"
         stroke-linejoin="round"
         d="m -22.105,643.24 0.013,-0.003 q 0.178,0.02 0.255,0.042 0.077,0.023 0.291,0.088" />
      <path
         id="STROKE_6e8588f8-d68e-43cc-888d-2b675b3795a6"
         opacity="1"
         fill="none"
         stroke="#1c7aa2"
         stroke-width="1.837"
         stroke-opacity="1"
         stroke-linecap="round"
         stroke-linejoin="round"
         d="m -14.193,644.189 q -0.078,-0.046 -0.372,-0.147 -0.295,-0.101 -0.684,-0.129 -0.389,-0.029 -0.638,0.073 -0.249,0.101 -0.311,0.184 -0.063,0.084 -0.084,0.186 -0.021,0.102 -0.035,0.173 -0.013,0.071 0.153,0.327 0.165,0.257 0.637,0.547 0.472,0.29 1.086,0.675 0.614,0.385 0.911,0.816 0.298,0.431 0.354,0.716 0.056,0.284 -0.007,0.645 -0.064,0.361 -0.677,0.832 -0.613,0.47 -1.573,0.623 -0.96,0.152 -1.469,-0.035 -0.51,-0.187 -0.712,-0.303" />
      <path
         id="STROKE_78f52095-ecae-40ce-86c2-b802982beead"
         opacity="1"
         fill="none"
         stroke="#1c7aa2"
         stroke-width="1.837"
         stroke-opacity="1"
         stroke-linecap="round"
         stroke-linejoin="round"
         d="m 2.965,643.059 q -0.052,-0.108 -0.159,-0.214 -0.065,-0.039 -0.277,0.062 -0.212,0.102 -0.699,0.967 -0.487,0.864 -0.676,1.552 -0.189,0.687 -0.171,1.286 0.019,0.6 0.284,0.928 0.265,0.328 0.816,0.482 0.552,0.155 1,0.127 0.449,-0.028 0.699,-0.107 0.25,-0.08 1.112,-0.691 0.862,-0.611 1.489,-1.421 0.626,-0.81 0.796,-1.846 -0.173,0.004 -0.7,0.859 -0.526,0.855 -0.691,1.719 -0.164,0.864 -0.151,1.355 0.013,0.491 0.148,0.783 0.134,0.292 0.406,0.573 0.271,0.28 0.954,0.451 0.683,0.171 1.186,0.084 0.503,-0.088 1.129,-0.555 0.626,-0.466 1.46,-1.578 0.835,-1.112 1.434,-4.875 l -0.059,-0.005" />
      <path
         id="STROKE_d39e666c-5dcd-4b9a-a48a-1461a36e846b"
         opacity="1"
         fill="none"
         stroke="#1c7aa2"
         stroke-width="1.837"
         stroke-opacity="1"
         stroke-linecap="round"
         stroke-linejoin="round"
         d="m 17.034,643.675 q 0.07,-0.09 0.751,-0.491 0.682,-0.4 1.421,-0.57 0.739,-0.169 1.128,-0.137 0.389,0.033 0.639,0.16 0.249,0.127 0.366,0.3 0.118,0.172 0.204,0.477 0.087,0.304 -0.053,1.193 -0.139,0.889 -0.707,2.089 -0.567,1.201 -1.553,1.727 -0.142,-0.164 -0.317,-0.858 -0.175,-0.695 -0.371,-1.081 -0.196,-0.387 -0.376,-0.532 -0.18,-0.144 -0.29,-0.167 -0.11,-0.023 -0.263,-0.043 -0.154,-0.02 -0.445,0.214 -0.291,0.234 -0.478,0.663 -0.187,0.43 -0.221,0.876 -0.034,0.446 0.009,0.75 0.043,0.304 0.119,0.472 0.076,0.169 0.177,0.323 0.101,0.154 0.509,0.481 0.407,0.327 1.479,0.423 1.071,0.097 1.837,-0.121 0.765,-0.217 1.168,-0.372" />
      <path
         id="STROKE_3ad7fdba-e6c7-4bab-997f-4def1a1a2321"
         opacity="1"
         fill="none"
         stroke="#1c7aa2"
         stroke-width="1.837"
         stroke-opacity="1"
         stroke-linecap="round"
         stroke-linejoin="round"
         d="m 31.471,643.92 q -0.017,-0.028 -0.424,-0.32 -0.406,-0.292 -1.11,-0.444 -0.704,-0.151 -1.166,-0.042 -0.462,0.109 -0.693,0.288 -0.231,0.18 -0.333,0.454 -0.101,0.274 -0.032,0.456 0.069,0.182 0.214,0.323 0.145,0.141 1.416,0.496 1.271,0.355 2.107,0.603 0.837,0.248 1.359,0.589 0.521,0.34 0.7,0.625 0.178,0.286 0.21,0.549 0.031,0.264 -0.085,0.556 -0.116,0.293 -0.634,0.673 -0.518,0.38 -1.113,0.603 -0.594,0.223 -1.194,0.333 -0.601,0.109 -1.462,0.151 -0.861,0.042 -1.671,-0.23 -0.809,-0.273 -1.117,-0.42" />
      <path
         id="STROKE_f57704fc-0562-4d96-a2bc-86af28f12b3e"
         opacity="1"
         fill="none"
         stroke="#1c7aa2"
         stroke-width="1.837"
         stroke-opacity="1"
         stroke-linecap="round"
         stroke-linejoin="round"
         d="m -35.346,658.089 q -0.077,-0.388 -0.283,-0.67 -0.205,-0.282 -0.727,-0.405 -0.521,-0.124 -0.986,-0.085 -0.465,0.039 -1.293,0.492 -0.827,0.453 -1.224,0.999 -0.396,0.546 -0.518,1.099 -0.122,0.554 -0.097,0.914 0.024,0.36 0.195,0.691 0.171,0.332 0.99,0.653 0.819,0.32 1.526,0.262 0.708,-0.058 1.03,-0.177 0.322,-0.119 1.016,-0.696 0.694,-0.576 0.962,-1.282 0.268,-0.706 0.016,-1.32 -0.117,-0.026 0.539,1.952 0.657,1.977 1.121,3.123 0.464,1.145 0.672,2.186 0.208,1.041 0.19,1.538 -0.018,0.496 -0.11,0.863 -0.092,0.367 -0.916,1.156 -0.823,0.789 -2.753,1.108 -1.931,0.319 -5.702,-0.436 l -0.137,-0.14" />
      <path
         id="STROKE_aa0e40f0-af8e-4789-9ff9-cc8537e28a7a"
         opacity="1"
         fill="none"
         stroke="#1c7aa2"
         stroke-width="1.837"
         stroke-opacity="1"
         stroke-linecap="round"
         stroke-linejoin="round"
         d="m -30.322,658.809 0.033,0.019 q 0.171,0.317 0.289,1.141 0.119,0.824 0.176,2.53 0.027,0.039 -0.172,0.028 -0.199,-0.011 -0.369,-0.92 -0.17,-0.908 -0.067,-1.622 0.103,-0.714 0.463,-1.255 0.361,-0.542 0.956,-0.922 0.594,-0.38 1.453,-0.458 0.858,-0.079 1.314,0.08 0.456,0.159 0.726,0.288" />
      <path
         id="STROKE_4b788635-6fa7-4a82-8db0-15c62caa558e"
         opacity="1"
         fill="none"
         stroke="#1c7aa2"
         stroke-width="1.837"
         stroke-opacity="1"
         stroke-linecap="round"
         stroke-linejoin="round"
         d="m -22.147,657.698 q -0.021,0.008 -0.573,0.076 -0.553,0.069 -1.206,0.611 -0.654,0.542 -0.967,1.291 -0.314,0.75 -0.351,1.329 -0.038,0.58 0.139,1.03 0.177,0.449 0.762,0.814 0.584,0.366 1.237,0.365 0.653,0 1.272,-0.297 0.618,-0.298 1.154,-0.856 0.537,-0.558 0.717,-1.18 0.181,-0.622 0.178,-1.066 -0.003,-0.444 -0.264,-0.919 -0.26,-0.476 -0.56,-0.769 -0.299,-0.294 -0.803,-0.54 -0.503,-0.247 -0.957,-0.26 -0.454,-0.012 -0.65,0.008 -0.195,0.02 -0.555,0.262 -0.359,0.241 -0.475,0.586 -0.117,0.345 -0.154,0.586" />
      <path
         id="STROKE_115f86b3-0e18-4ca0-bb32-1fe00b047f1f"
         opacity="1"
         fill="none"
         stroke="#1c7aa2"
         stroke-width="1.837"
         stroke-opacity="1"
         stroke-linecap="round"
         stroke-linejoin="round"
         d="m -15.679,659.426 q -0.012,-0.07 -0.103,-0.211 -0.091,-0.14 -0.235,-0.202 -0.144,-0.061 -0.333,-0.038 -0.188,0.024 -0.406,0.386 -0.218,0.361 -0.266,0.885 -0.048,0.524 0.039,0.991 0.088,0.468 0.567,0.851 0.479,0.383 1.128,0.479 0.648,0.096 1.291,-0.13 0.644,-0.225 1.133,-0.705 0.49,-0.479 0.769,-1.098 0.278,-0.619 0.166,-1.509 -0.113,-0.89 -0.208,-1.158" />
      <path
         id="STROKE_87394ba1-3107-4864-9241-bc0df29b1c13"
         opacity="1"
         fill="none"
         stroke="#1c7aa2"
         stroke-width="1.837"
         stroke-opacity="1"
         stroke-linecap="round"
         stroke-linejoin="round"
         d="m -8.779,659.283 q 0.01,0.017 -0.348,1.151 -0.358,1.134 -0.881,3.033 -0.524,1.899 -0.877,4.001 -0.352,2.102 -0.932,4.162 l -0.13,0.031" />
      <path
         id="STROKE_6e01acdb-6bfc-4925-a290-921c434bad4f"
         opacity="1"
         fill="none"
         stroke="#1c7aa2"
         stroke-width="1.837"
         stroke-opacity="1"
         stroke-linecap="round"
         stroke-linejoin="round"
         d="m -9.949,659.323 q 0.11,-0.219 0.623,-0.552 0.512,-0.332 1.432,-0.429 0.92,-0.097 1.731,-0.005 0.812,0.092 1.432,0.408 0.62,0.316 0.873,0.746 0.252,0.43 0.087,1.1 -0.166,0.671 -1.445,1.609 -1.279,0.939 -2.456,1.218 -1.177,0.279 -1.455,0.329" />
      <path
         id="STROKE_11e1f120-79a2-4a63-afd6-8471d2c3ad26"
         opacity="1"
         fill="none"
         stroke="#1c7aa2"
         stroke-width="1.837"
         stroke-opacity="1"
         stroke-linecap="round"
         stroke-linejoin="round"
         d="m 9.533,656.445 q 0.011,-0.007 0.74,-0.055 0.728,-0.048 1.591,-0.469 0.862,-0.421 1.259,-0.721 0.396,-0.299 0.554,-0.44 0.158,-0.141 0.772,-1.048 -0.073,0.059 -0.145,0.139 -0.073,0.08 -0.149,0.181 -0.077,0.101 -0.174,0.228 -0.097,0.126 -0.637,1.142 -0.541,1.016 -0.885,1.813 -0.345,0.798 -0.877,2.284 -0.533,1.485 -0.789,2.432 -0.256,0.946 -0.375,1.855" />
    </g>
    <g
       id="g976">
      <path
         id="STROKE_32da3b89-b9e8-4485-b027-caa12d48eb84"
         opacity="1"
         fill="none"
         stroke="#1c7aa2"
         stroke-width="1.837"
         stroke-opacity="1"
         stroke-linecap="round"
         stroke-linejoin="round"
         d="m -79.692,692.598 q 0.149,-0.371 0.853,-0.947 0.703,-0.576 1.375,-0.874 0.671,-0.298 1.091,-0.395 0.421,-0.096 0.807,-0.069 0.387,0.026 0.49,0.076 0.104,0.05 0.268,0.142 0.163,0.091 0.4,0.627 0.238,0.536 0.108,1.534 -0.13,0.997 -0.722,2.593 -0.593,1.596 -0.872,2.911 -0.279,1.316 -0.292,2.041 -0.014,0.725 0.165,1.311 0.178,0.586 0.616,1.054 0.439,0.469 0.868,0.712 -0.111,0.045 -0.261,0.242 -0.15,0.197 -0.252,0.489 -0.101,0.291 -0.204,0.705 -0.102,0.414 0.185,2.229 0.287,1.815 0.497,2.886 0.21,1.072 0.259,2.063 0.049,0.991 -0.012,1.612 -0.06,0.622 -0.496,1.231 -0.436,0.609 -2.152,0.904 -1.716,0.296 -3.387,0.193 0.027,-0.149 0.569,-0.478 0.543,-0.33 0.858,-0.499" />
      <path
         id="STROKE_e01b3c06-efb2-4c0e-8b5f-17d8c65ce753"
         opacity="1"
         fill="none"
         stroke="#1c7aa2"
         stroke-width="1.837"
         stroke-opacity="1"
         stroke-linecap="round"
         stroke-linejoin="round"
         d="m -65.418,694.468 q 0.008,-0.019 1.311,-1.888 0.031,-0.005 -1.729,8.549 -0.012,-0.017 -0.07,-0.113 -0.059,-0.096 -0.155,-0.274" />
      <path
         id="STROKE_1447eb00-a902-4790-ba4a-1ae093261c70"
         opacity="1"
         fill="none"
         stroke="#1c7aa2"
         stroke-width="1.837"
         stroke-opacity="1"
         stroke-linecap="round"
         stroke-linejoin="round"
         d="m -69.809,694.468 q -0.128,-0.115 -0.177,-0.191 -0.05,-0.076 -0.067,-0.288 -0.017,-0.213 0.234,-0.471 0.25,-0.258 1.171,-0.732 0.922,-0.475 1.541,-0.737 0.62,-0.263 2.296,-0.73 1.677,-0.467 2.93,-0.619 1.254,-0.151 1.723,-0.044 0.468,0.107 0.607,0.175" />
      <path
         id="STROKE_b8991ae1-003a-4f23-ac50-0b96d833f9a1"
         opacity="1"
         fill="none"
         stroke="#1c7aa2"
         stroke-width="1.797"
         stroke-opacity="1"
         stroke-linecap="round"
         stroke-linejoin="round"
         d="m -56.335,689.657 -0.009,0.004 q -0.203,0.074 -0.433,0.69 -0.23,0.617 -0.38,1.468 -0.15,0.851 -0.329,2.017 -0.179,1.165 -1.941,9.348 -0.022,-0.026 0.447,-1.489 0.469,-1.462 0.896,-2.561 0.427,-1.098 0.881,-1.71 0.455,-0.611 0.751,-0.824 0.296,-0.213 0.495,-0.26 0.199,-0.046 0.282,-0.039 0.083,0.007 0.278,0.164 0.196,0.156 0.208,1.839 0.013,1.684 -0.131,3.962 0.044,-0.011 0.65,-0.97" />
      <path
         id="STROKE_5c7ab38a-5691-4165-9fdf-0cbafa3f1530"
         opacity="1"
         fill="none"
         stroke="#1c7aa2"
         stroke-width="1.837"
         stroke-opacity="1"
         stroke-linecap="round"
         stroke-linejoin="round"
         d="m -51.618,697.658 q -0.11,0.284 -0.132,0.304 -0.088,0.124 -0.367,3.368 0.011,0.06 0.188,-0.402" />
      <path
         id="STROKE_daaadc87-42eb-49b5-a40d-eb34ac671240"
         opacity="1"
         fill="none"
         stroke="#1c7aa2"
         stroke-width="1.837"
         stroke-opacity="1"
         stroke-linecap="round"
         stroke-linejoin="round"
         d="m -51.27,694.492 q -0.276,0.223 -0.229,0.261 -0.024,0.019 0.101,0.15 0.124,0.131 0.532,0.33 0.408,0.198 0.645,0.306" />
      <path
         id="STROKE_b9bcb6ca-8318-4ad0-b940-89801c5bea03"
         opacity="1"
         fill="none"
         stroke="#1c7aa2"
         stroke-width="1.837"
         stroke-opacity="1"
         stroke-linecap="round"
         stroke-linejoin="round"
         d="m -43.463,696.318 q -0.414,-0.132 -0.454,-0.124 -1.13,-0.08 -1.541,0.015 -0.41,0.095 -0.626,0.342 -0.215,0.248 -0.261,0.543 -0.046,0.295 0.012,0.482 0.058,0.186 0.263,0.465 0.204,0.279 0.528,0.535 0.324,0.256 0.997,0.627 0.673,0.371 0.869,0.501 0.196,0.13 0.473,0.457 0.278,0.328 0.099,0.734 -0.178,0.406 -0.995,0.899 -0.816,0.494 -1.324,0.659 -0.507,0.166 -1.169,0.216 -0.661,0.05 -1.631,-0.816" />
      <path
         id="STROKE_25e64703-ce4d-4991-83c1-a01d41fad930"
         opacity="1"
         fill="none"
         stroke="#1c7aa2"
         stroke-width="1.837"
         stroke-opacity="1"
         stroke-linecap="round"
         stroke-linejoin="round"
         d="m -28.778,695.085 q -0.172,0.049 -0.421,0.112 -0.25,0.063 -0.559,1.035 -0.31,0.972 -0.343,1.896 -0.033,0.924 0.021,1.448 0.054,0.524 0.282,0.798 0.228,0.274 0.767,0.351 0.54,0.078 1.267,-0.572 0.727,-0.649 1.257,-1.419 0.529,-0.77 0.45,-2.177 10e-4,-0.014 -0.167,-0.072 -0.169,-0.058 -0.409,0.343 -0.241,0.402 -0.348,1.318 -0.108,0.917 -0.034,1.569 0.074,0.653 0.317,0.996 0.242,0.343 0.7,0.491 0.459,0.147 0.87,0.072 0.412,-0.075 0.975,-0.678 0.563,-0.603 0.973,-1.43 0.41,-0.827 0.564,-1.484 0.153,-0.656 0.176,-1.192 0.023,-0.536 -0.126,-1.232 l -0.155,-0.149" />
      <path
         id="STROKE_7d42521e-37b5-4874-b2d2-99903995a31f"
         opacity="1"
         fill="none"
         stroke="#1c7aa2"
         stroke-width="1.837"
         stroke-opacity="1"
         stroke-linecap="round"
         stroke-linejoin="round"
         d="m -19.116,695.682 q 0.326,-0.38 0.535,-0.592 0.209,-0.211 0.684,-0.348 0.474,-0.137 0.694,-0.135 0.219,0.003 0.52,0.13 0.3,0.128 0.487,0.518 0.186,0.39 0.274,1.101 0.088,0.71 -0.006,1.382 -0.094,0.673 -0.238,0.939 -0.145,0.266 -0.399,0.385 -0.254,0.12 -0.736,-0.13 -0.482,-0.25 -0.97,-0.475 -0.487,-0.224 -1.098,-0.159 -0.018,0.003 -0.123,0.47 -0.105,0.467 -10e-4,0.796 0.104,0.328 0.315,0.664 0.211,0.336 0.855,0.576 0.644,0.239 1.229,0.243 0.585,0.003 1.208,-0.266 0.622,-0.269 0.887,-0.43" />
      <path
         id="STROKE_14b58d70-fa2c-4d7e-a788-76f6f4eddae1"
         opacity="1"
         fill="none"
         stroke="#1c7aa2"
         stroke-width="1.837"
         stroke-opacity="1"
         stroke-linecap="round"
         stroke-linejoin="round"
         d="m -7.809,694.203 q -0.124,-0.025 -0.816,-0.092 -0.692,-0.068 -1.232,0.094 -0.539,0.162 -0.762,0.41 -0.224,0.248 -0.298,0.563 -0.074,0.315 0.134,0.868 0.208,0.553 0.406,0.766 0.198,0.213 0.666,0.587 0.468,0.375 1.18,0.781 0.711,0.406 1.067,0.754 0.355,0.349 0.446,0.724 0.092,0.375 0.067,0.564 -0.025,0.189 -0.131,0.395 -0.106,0.206 -0.586,0.639 -0.48,0.434 -1.299,0.722 -0.819,0.288 -1.709,0.317 -0.89,0.028 -1.424,-0.467 -0.534,-0.496 -0.733,-0.758" />
      <path
         id="STROKE_05d1f4af-eaa1-4940-96ce-cd89c25191fd"
         opacity="1"
         fill="none"
         stroke="#1c7aa2"
         stroke-width="1.837"
         stroke-opacity="1"
         stroke-linecap="round"
         stroke-linejoin="round"
         d="m -59.324,707.301 q -0.038,-0.01 -0.893,0.137 -0.855,0.146 -1.433,0.419 -0.578,0.272 -0.882,0.661 -0.305,0.388 -0.417,0.933 -0.112,0.544 -0.073,1.036 0.039,0.493 0.24,0.821 0.2,0.328 0.329,0.398 0.129,0.07 0.483,0.177 0.354,0.108 1.102,-0.356 0.748,-0.465 1.091,-0.927 0.344,-0.463 0.46,-0.756 0.116,-0.293 0.11,-0.599 -0.007,-0.305 -0.567,-0.499 -0.282,0.227 0.258,1.384 0.541,1.158 1.158,2.377 0.618,1.22 1.004,2.408 0.386,1.188 0.559,2.171 0.174,0.984 0.103,1.812 -0.072,0.829 -0.471,1.353 -0.399,0.524 -1.227,0.796 -0.827,0.271 -1.414,0.313 -0.587,0.042 -1.319,-0.026 -0.732,-0.068 -1.397,-0.38 -0.665,-0.312 -0.888,-0.639 -0.223,-0.327 -0.22,-0.548 0.004,-0.221 0.393,-0.764" />
      <path
         id="STROKE_227378d5-bd2c-4603-9d0a-be316d5e92e7"
         opacity="1"
         fill="none"
         stroke="#1c7aa2"
         stroke-width="1.837"
         stroke-opacity="1"
         stroke-linecap="round"
         stroke-linejoin="round"
         d="m -53.948,709.811 q -0.239,0.482 1.06,2.844 -0.04,-0.01 -0.15,-1.043 -0.111,-1.032 -0.095,-1.757 0.016,-0.725 0.137,-1.246 0.121,-0.521 1.391,-0.593 1.269,-0.073 1.553,-0.035" />
      <path
         id="STROKE_5f1d258a-5fb3-436e-b034-067e7b57ab85"
         opacity="1"
         fill="none"
         stroke="#1c7aa2"
         stroke-width="1.837"
         stroke-opacity="1"
         stroke-linecap="round"
         stroke-linejoin="round"
         d="m -47.353,709.092 q -0.646,0.298 -0.877,0.479 -0.232,0.181 -0.44,0.501 -0.209,0.32 -0.304,0.8 -0.094,0.48 -0.072,0.93 0.022,0.45 0.334,0.883 0.312,0.434 0.583,0.574 0.27,0.14 1.05,0.233 0.781,0.093 1.318,-0.039 0.537,-0.131 0.872,-0.385 0.334,-0.253 0.602,-0.799 0.267,-0.546 0.295,-1.066 0.029,-0.52 -0.336,-1.097 -0.364,-0.576 -0.876,-0.945 -0.512,-0.368 -0.949,-0.461 -0.437,-0.093 -0.731,0.002 -0.294,0.095 -0.316,0.142 -0.022,0.046 -0.301,0.473" />
      <path
         id="STROKE_73664eeb-7605-4732-9188-b51c94f882ff"
         opacity="1"
         fill="none"
         stroke="#1c7aa2"
         stroke-width="1.837"
         stroke-opacity="1"
         stroke-linecap="round"
         stroke-linejoin="round"
         d="m -41.26,709.38 -0.151,-0.24 q -0.199,-0.08 -0.206,-0.073 -0.007,0.006 -0.123,-0.003 -0.117,-0.01 -0.472,0.501 -0.355,0.511 -0.452,1.332 -0.098,0.821 -0.051,1.178 0.046,0.358 0.263,0.633 0.217,0.276 0.702,0.437 0.486,0.162 0.938,0.109 0.452,-0.053 0.792,-0.197 0.341,-0.143 0.789,-0.434 0.448,-0.29 0.962,-0.954 0.514,-0.665 0.307,-2.138 -0.121,-0.123 -0.444,-0.066 -0.323,0.058 -0.503,0.14" />
      <path
         id="STROKE_1fd1b25a-1046-4a1e-898a-43a58f760fa3"
         opacity="1"
         fill="none"
         stroke="#1c7aa2"
         stroke-width="1.815"
         stroke-opacity="1"
         stroke-linecap="round"
         stroke-linejoin="round"
         d="m -33.801,709.483 q -0.018,0.157 -0.225,1.059 -0.207,0.902 -0.546,4.152 -0.338,3.251 -0.566,6.174 l -0.129,-0.138" />
      <path
         id="STROKE_53e62585-9367-40b9-9346-66f6069b9d46"
         opacity="1"
         fill="none"
         stroke="#1c7aa2"
         stroke-width="1.837"
         stroke-opacity="1"
         stroke-linecap="round"
         stroke-linejoin="round"
         d="m -34.502,708.7 q 0.161,-0.316 0.195,-0.332 0.264,-0.246 0.306,-0.273 0.042,-0.027 0.102,-0.076 0.06,-0.05 0.761,-0.245 0.7,-0.195 1.508,-0.155 0.808,0.04 1.376,0.346 0.568,0.306 0.913,0.742 0.344,0.436 0.48,1.217 0.137,0.781 -0.138,1.509 -0.275,0.728 -0.956,1.437 -0.681,0.709 -1.495,1.031 -0.815,0.323 -1.31,0.349 -0.495,0.027 -0.794,0.005" />
      <path
         id="STROKE_dadf8f56-5501-45c4-8d92-96212c9eb405"
         opacity="1"
         fill="none"
         stroke="#1c7aa2"
         stroke-width="1.837"
         stroke-opacity="1"
         stroke-linecap="round"
         stroke-linejoin="round"
         d="m -23.133,709.566 q -0.025,-0.03 -0.094,-0.143 -0.07,-0.114 -0.017,-0.282 0.053,-0.168 0.793,-0.843 0.741,-0.676 1.446,-0.941 0.705,-0.266 1.004,-0.272 0.299,-0.006 0.475,0.03 0.176,0.035 0.313,0.353 0.137,0.318 0.162,0.586 0.025,0.268 -0.313,1.146 -0.338,0.877 -1.101,1.746 -0.762,0.869 -1.333,1.452 -0.571,0.584 -0.78,0.884 -0.21,0.301 -0.225,0.496 -0.015,0.195 0.229,0.433 0.244,0.238 0.628,0.348 0.383,0.109 1.059,0.124 0.677,0.014 1.237,-0.104 0.56,-0.117 1.133,-0.407 0.574,-0.289 0.79,-0.488 0.216,-0.199 0.243,-0.233 0.027,-0.033 0.109,-0.173 0.081,-0.139 0.172,-0.364" />
      <path
         id="STROKE_552f765c-42e2-4048-89da-e2894fcb1d27"
         opacity="1"
         fill="none"
         stroke="#1c7aa2"
         stroke-width="1.837"
         stroke-opacity="1"
         stroke-linecap="round"
         stroke-linejoin="round"
         d="m -14.235,709.586 q 0.046,-0.007 0.992,-0.705 0.946,-0.698 1.449,-1.306 0.504,-0.607 0.773,-1.149 0.269,-0.541 0.297,-1.185 -0.029,-0.068 -0.525,1.681 -0.497,1.75 -0.744,3.545 -0.247,1.796 -0.301,2.861 -0.054,1.065 -0.319,1.56 -0.265,0.494 -0.425,0.703" />
    </g>
    <g
       id="g996">
      <path
         id="STROKE_2ff72614-b06a-4e2a-bcc4-9f418e11fd69"
         opacity="1"
         fill="none"
         stroke="#1c7aa2"
         stroke-width="1.837"
         stroke-opacity="1"
         stroke-linecap="round"
         stroke-linejoin="round"
         d="m -80.762,732.99 q 0.003,-0.028 -0.08,-0.647 -0.083,-0.618 0.147,-1.096 0.23,-0.479 0.729,-0.85 0.5,-0.371 1.453,-0.642 0.954,-0.272 1.566,-0.287 0.613,-0.016 0.988,0.176 0.374,0.192 0.614,1.403 0.239,1.211 0.116,2.444 -0.123,1.233 -0.208,2.37 -0.086,1.137 -0.082,1.751 0.003,0.615 0.193,0.99 0.19,0.376 0.331,0.563 0.141,0.187 0.229,0.342 0.088,0.156 0.144,0.371 0.007,0.018 -0.218,0.097 -0.225,0.078 -0.442,0.248 -0.217,0.169 -0.383,0.388 -0.165,0.218 -0.385,1.182 -0.22,0.964 -0.184,2.4 0.036,1.437 0.163,2.251 0.127,0.814 0.274,1.458 0.147,0.644 0.531,2.159 0.384,1.516 0.515,2.388 0.131,0.873 0.128,1.31 -0.003,0.436 -0.054,0.736 -0.051,0.3 -0.314,0.624 -0.264,0.323 -1.186,0.764 -0.922,0.441 -2.324,0.921 -1.402,0.481 -2.412,0.476 -0.05,-0.176 -0.057,-0.178 -0.007,-0.002 0.35,-0.629" />
      <path
         id="STROKE_db0d3ab9-ad43-43a0-bece-44ce71e1b78c"
         opacity="1"
         fill="none"
         stroke="#1c7aa2"
         stroke-width="1.837"
         stroke-opacity="1"
         stroke-linecap="round"
         stroke-linejoin="round"
         d="m -62.044,731.424 -0.024,0.372 q -0.009,0.58 -0.922,7.11 l 0.002,-0.224" />
      <path
         id="STROKE_d1210336-7ed5-46a1-951b-55a9f91aa87f"
         opacity="1"
         fill="none"
         stroke="#1c7aa2"
         stroke-width="1.837"
         stroke-opacity="1"
         stroke-linecap="round"
         stroke-linejoin="round"
         d="m -67.046,732.452 q -0.257,0.051 -0.508,0.084 0.164,0.019 2.083,-0.569 1.918,-0.588 3.254,-0.991 1.336,-0.402 3.126,-0.826 1.789,-0.423 3.391,-0.33 l 0.271,0.248" />
      <path
         id="STROKE_177842b3-c0c7-43e2-9ea4-0a46585aba36"
         opacity="1"
         fill="none"
         stroke="#1c7aa2"
         stroke-width="1.837"
         stroke-opacity="1"
         stroke-linecap="round"
         stroke-linejoin="round"
         d="m -53.721,731.135 q -0.117,0.241 -0.682,2.938 -0.565,2.696 -1.191,6.045 -0.004,-0.011 0.231,-0.759 0.234,-0.747 0.579,-1.437 0.345,-0.689 0.76,-1.006 0.416,-0.318 0.825,-0.358 0.275,0.134 -0.252,3.912 0.13,-0.006 0.366,-0.272 0.235,-0.266 0.413,-0.508" />
      <path
         id="STROKE_77c04929-215c-40ca-9f3d-a85777e1601d"
         opacity="1"
         fill="none"
         stroke="#1c7aa2"
         stroke-width="1.837"
         stroke-opacity="1"
         stroke-linecap="round"
         stroke-linejoin="round"
         d="m -49.805,736.773 q -0.145,0.21 -0.4,3.131 0.01,-0.014 0.049,-0.122 0.039,-0.109 0.104,-0.297" />
      <path
         id="STROKE_aa87438b-9c4c-41c6-9765-ddc5516d9151"
         opacity="1"
         fill="none"
         stroke="#1c7aa2"
         stroke-width="1.837"
         stroke-opacity="1"
         stroke-linecap="round"
         stroke-linejoin="round"
         d="m -49.868,735.413 q 0.03,-0.179 0.022,-0.244 0.01,-0.049 0.599,0.172 0.59,0.222 0.839,0.361" />
      <path
         id="STROKE_04f7979f-4979-4366-a6dc-16043abcba15"
         opacity="1"
         fill="none"
         stroke="#1c7aa2"
         stroke-width="1.837"
         stroke-opacity="1"
         stroke-linecap="round"
         stroke-linejoin="round"
         d="m -45.071,736.646 q -0.477,0.084 -0.487,0.095 l -0.319,0.132 q -0.063,-0.003 -0.424,0.414 -0.36,0.418 -0.424,0.76 -0.064,0.341 -0.029,0.621 0.034,0.28 0.244,0.556 0.21,0.276 0.739,0.635 0.528,0.358 1.111,0.753 0.584,0.394 0.684,0.578 0.099,0.183 0.014,0.376 -0.086,0.192 -0.93,0.357 -0.844,0.164 -1.504,0.18 -0.66,0.017 -1.073,-0.011 -0.412,-0.028 -0.554,-0.063 -0.142,-0.036 -0.343,-0.097" />
      <path
         id="STROKE_068b92a8-a63a-48de-aed3-398fd23cdf1c"
         opacity="1"
         fill="none"
         stroke="#1c7aa2"
         stroke-width="1.837"
         stroke-opacity="1"
         stroke-linecap="round"
         stroke-linejoin="round"
         d="m -35.82,735.868 q -0.02,0.012 -0.181,0.19 -0.162,0.177 -0.344,0.488 -0.183,0.311 -0.251,0.508 -0.068,0.197 -0.124,0.437 -0.056,0.241 -0.077,0.888 -0.021,0.647 0.176,1.106 0.197,0.459 0.652,0.614 0.456,0.156 0.976,-0.107 0.52,-0.264 1.021,-0.968 0.501,-0.704 0.728,-1.221 0.227,-0.518 0.192,-1.338 -0.12,0.147 -0.116,0.95 0.004,0.804 0.09,1.376 0.087,0.572 0.283,0.842 0.196,0.27 0.445,0.45 0.249,0.179 0.524,0.23 0.275,0.051 0.756,-0.162 0.48,-0.213 1.089,-1.12 0.609,-0.908 0.819,-3.135 -0.123,-0.023 -0.16,0.083 -0.037,0.105 -0.115,0.28" />
      <path
         id="STROKE_b277cdcc-b811-4e3f-9b5c-94bbb9ef98e4"
         opacity="1"
         fill="none"
         stroke="#1c7aa2"
         stroke-width="1.837"
         stroke-opacity="1"
         stroke-linecap="round"
         stroke-linejoin="round"
         d="m -25.71,735.579 q 0.078,-0.095 0.426,-0.445 0.349,-0.35 0.837,-0.507 0.489,-0.157 0.927,-0.025 0.439,0.132 0.749,1.142 0.31,1.01 0.24,1.917 -0.071,0.906 -0.34,1.477 -0.106,0.09 -0.548,-0.36 -0.443,-0.451 -1.047,-0.684 -0.604,-0.234 -1.02,-0.191 -0.417,0.042 -0.556,0.194 -0.139,0.153 -0.213,0.442 -0.073,0.288 -0.04,0.528 0.033,0.241 0.207,0.5 0.173,0.26 0.796,0.504 0.622,0.245 1.088,0.258 0.465,0.013 0.918,-0.033 0.454,-0.046 0.67,-0.092" />
      <path
         id="STROKE_b957af4a-2f34-4261-ac1f-7c3ec4902126"
         opacity="1"
         fill="none"
         stroke="#1c7aa2"
         stroke-width="1.837"
         stroke-opacity="1"
         stroke-linecap="round"
         stroke-linejoin="round"
         d="m -17.16,735.662 q -0.274,-0.085 -2.371,0.672 -0.102,0.245 0.339,0.612 0.442,0.367 0.855,0.531 0.413,0.164 0.677,0.271 0.263,0.107 0.549,0.26 0.285,0.153 0.617,0.492 0.331,0.339 0.44,0.826 0.109,0.487 -0.021,0.884 -0.13,0.397 -0.744,0.793 -0.613,0.397 -1.079,0.428 -0.467,0.032 -0.792,-0.168 -0.325,-0.199 -0.544,-0.442 -0.219,-0.243 -0.335,-0.368" />
      <path
         id="STROKE_faebf597-ec60-43b9-8554-205eb9dde22e"
         opacity="1"
         fill="none"
         stroke="#1c7aa2"
         stroke-width="1.837"
         stroke-opacity="1"
         stroke-linecap="round"
         stroke-linejoin="round"
         d="m -58.892,750.365 q -0.038,-0.013 -0.218,-0.18 -0.179,-0.167 -0.614,-0.363 -0.434,-0.195 -0.856,-0.224 -0.422,-0.029 -0.625,0.008 -0.204,0.037 -0.577,0.25 -0.373,0.214 -0.682,0.561 -0.31,0.347 -0.52,1.072 -0.211,0.725 -0.175,1.179 0.036,0.454 0.241,0.78 0.205,0.325 0.443,0.45 0.238,0.125 0.647,0.174 0.408,0.049 0.9,-0.144 0.492,-0.194 1.079,-0.817 0.587,-0.623 0.808,-1.167 0.22,-0.544 0.051,-1.035 0.001,-0.014 -0.127,0.002 -0.127,0.016 -0.205,0.319 -0.079,0.302 0.445,1.515 0.524,1.212 1.067,2.521 0.543,1.308 0.753,2.754 0.209,1.445 0.219,2.382 0.009,0.936 -0.214,1.676 -0.222,0.74 -0.811,1.398 -0.589,0.658 -1.398,1.169 -0.809,0.51 -1.596,0.712 -0.787,0.202 -1.346,0.226 -0.559,0.025 -1.253,-0.178 -0.693,-0.204 -1.24,-0.665 -0.546,-0.461 -0.779,-0.79 -0.232,-0.328 -0.282,-0.65 -0.049,-0.322 0.126,-0.608 0.176,-0.286 0.398,-0.523" />
      <path
         id="STROKE_9bc6f015-5e58-47c2-bf38-69584893e9fb"
         opacity="1"
         fill="none"
         stroke="#1c7aa2"
         stroke-width="1.837"
         stroke-opacity="1"
         stroke-linecap="round"
         stroke-linejoin="round"
         d="m -54.027,749.934 q -0.088,0.095 0.328,1.376 0.417,1.282 0.613,2.822 -0.09,0.014 -0.294,-0.736 -0.204,-0.751 -0.235,-1.545 -0.03,-0.795 0,-1.241 0.03,-0.446 0.301,-1.006 0.27,-0.559 1.073,-0.846 0.803,-0.287 1.323,-0.282 0.521,0.004 0.774,0.085 0.252,0.08 0.392,0.168 0.139,0.089 0.332,0.274 0.193,0.185 0.58,0.682" />
      <path
         id="STROKE_1cb21e5a-84d0-4731-ae7b-e223dd403ba9"
         opacity="1"
         fill="none"
         stroke="#1c7aa2"
         stroke-width="1.837"
         stroke-opacity="1"
         stroke-linecap="round"
         stroke-linejoin="round"
         d="m -48.45,750.487 0.003,0.002 q -0.019,-0.08 -0.079,-0.227 -0.179,0.062 -0.178,0.129 -0.25,1.295 -0.161,1.666 0.089,0.371 0.386,0.673 0.296,0.303 0.829,0.387 0.532,0.084 0.955,-0.047 0.423,-0.131 0.709,-0.3 0.286,-0.169 0.524,-0.418 0.237,-0.249 0.365,-0.532 0.128,-0.282 0.145,-0.656 0.017,-0.374 -0.014,-0.495 -0.031,-0.121 -0.144,-0.339 -0.114,-0.217 -0.555,-0.482 -0.442,-0.264 -0.986,-0.273 -0.544,-0.008 -0.838,0.135 -0.294,0.142 -0.378,0.287 -0.083,0.144 -0.188,0.328" />
      <path
         id="STROKE_03421d47-1b85-42b9-b456-f9e2dc2ffa86"
         opacity="1"
         fill="none"
         stroke="#1c7aa2"
         stroke-width="1.837"
         stroke-opacity="1"
         stroke-linecap="round"
         stroke-linejoin="round"
         d="m -40.928,748.843 q -0.527,0.175 -0.873,0.627 -0.345,0.452 -0.467,1.226 -0.121,0.773 -0.094,1.293 0.027,0.52 0.223,0.933 0.196,0.412 0.78,0.616 0.583,0.205 1.07,0.165 0.486,-0.039 1.038,-0.525 0.552,-0.486 0.799,-1.278 0.247,-0.792 0.223,-1.171 -0.025,-0.38 -0.084,-0.61" />
      <path
         id="STROKE_55828fe7-b318-43e0-adb3-af7a1602d05b"
         opacity="1"
         fill="none"
         stroke="#1c7aa2"
         stroke-width="1.71"
         stroke-opacity="1"
         stroke-linecap="round"
         stroke-linejoin="round"
         d="m -35.493,750.673 q 0.008,0.033 0.05,3.384 0.041,3.351 -0.262,8.276 l -0.057,0.062" />
      <path
         id="STROKE_e40bf07d-0749-4825-bb10-20da3478d53d"
         opacity="1"
         fill="none"
         stroke="#1c7aa2"
         stroke-width="1.837"
         stroke-opacity="1"
         stroke-linecap="round"
         stroke-linejoin="round"
         d="m -34.977,750.859 q -0.003,-0.032 0.01,-0.403 0.013,-0.37 0.322,-0.71 0.309,-0.341 1.154,-0.499 0.846,-0.157 1.341,-0.069 0.495,0.089 0.844,0.417 0.349,0.328 0.484,0.947 0.135,0.62 -0.058,1.374 -0.193,0.754 -0.715,1.296 -0.522,0.542 -1.259,0.716 -0.736,0.173 -1.114,0.088 -0.377,-0.086 -0.619,-0.196" />
      <path
         id="STROKE_3d1f1ff2-63c6-4537-8724-da89942449ce"
         opacity="1"
         fill="none"
         stroke="#1c7aa2"
         stroke-width="1.837"
         stroke-opacity="1"
         stroke-linecap="round"
         stroke-linejoin="round"
         d="m -22.474,746.478 q 0.345,-0.288 0.768,-0.52 0.424,-0.231 1.276,-0.389 0.851,-0.158 1.273,-0.126 0.421,0.031 0.642,0.178 0.222,0.147 0.334,0.466 0.111,0.319 -0.219,1.105 -0.33,0.785 -1.432,2.114 -1.101,1.329 -1.737,2.241 -0.636,0.911 -0.831,1.328 -0.194,0.417 -0.206,0.692 -0.011,0.275 0.085,0.393 0.097,0.118 0.147,0.129 0.051,0.011 0.202,0.075 0.15,0.064 1.526,-0.058 1.375,-0.122 2.202,-0.433 0.828,-0.312 1.057,-0.43" />
      <path
         id="STROKE_81b303de-5e2c-497a-908f-28f40ce18308"
         opacity="1"
         fill="none"
         stroke="#1c7aa2"
         stroke-width="1.837"
         stroke-opacity="1"
         stroke-linecap="round"
         stroke-linejoin="round"
         d="m -13.987,747.158 q 0.348,-0.472 0.353,-0.476 0.005,-0.004 0.352,-0.413 0.347,-0.408 1.175,-1.04 0.828,-0.631 2.312,-0.813 0.17,0.069 0.059,1.158 -0.112,1.09 -1.074,2.817 -0.961,1.727 -1.534,2.622 -0.573,0.896 -0.728,1.693 -0.156,0.797 0.192,1.068 0.349,0.271 1.304,0.365 0.955,0.093 1.647,-0.032 0.692,-0.124 1.338,-0.524 0.646,-0.4 0.866,-0.566" />
    </g>
    <g
       id="g1020">
      <path
         id="STROKE_0da84298-d6f3-4b5c-837d-9c86da12729a"
         opacity="1"
         fill="none"
         stroke="#1c7aa2"
         stroke-width="1.837"
         stroke-opacity="1"
         stroke-linecap="round"
         stroke-linejoin="round"
         d="m 3.893,689.696 q 0.007,-0.127 0.606,-1.094 0.6,-0.967 1.85,-1.789 1.25,-0.821 3.11,-1.442 1.859,-0.621 3.096,-0.904 1.237,-0.282 1.84,-0.295 0.603,-0.013 0.953,0.062 0.35,0.075 0.656,0.334 0.306,0.26 0.502,1.147 0.196,0.886 -0.131,2.523 -0.327,1.637 -0.708,2.679 -0.382,1.042 -0.766,1.94 -0.384,0.898 -0.686,1.572 -0.301,0.675 -0.782,1.81 -0.481,1.135 -1.15,3.497 -0.669,2.361 -1.011,4.144 -0.342,1.784 -0.456,2.572 -0.114,0.788 -0.111,2.767 0.003,1.979 0.032,3.133 0.03,1.153 0.28,2.446 0.25,1.294 0.668,2.554 0.419,1.26 1.76,2.764 -0.631,1.243 -1.162,2.827 -0.532,1.584 -0.771,2.897 -0.24,1.313 -0.246,3.179 -0.005,1.866 0,3.306 0.005,1.439 0.394,4.834 0.389,3.395 0.843,6.473 0.455,3.078 0.677,4.575 0.223,1.497 0.418,2.579 0.195,1.081 0.282,3.564 0.087,2.483 0.082,3.975 -0.005,1.492 -0.114,2.588 -0.109,1.097 -0.33,1.849 -0.222,0.752 -1.071,1.492 -0.85,0.74 -2.321,1.337 -1.472,0.598 -2.762,0.862 -1.291,0.264 -2.082,0.295 -0.79,0.03 -1.479,-0.177 -0.689,-0.206 -1.085,-0.498 -0.397,-0.292 -1.013,-2.548" />
      <path
         id="STROKE_dabd7413-97d7-4813-bd04-828ddc9c1c84"
         opacity="1"
         fill="none"
         stroke="#1c7aa2"
         stroke-width="1.837"
         stroke-opacity="1"
         stroke-linecap="round"
         stroke-linejoin="round"
         d="m 33.819,706.075 -0.057,-0.158 q 0.004,0.03 -1.571,4.728 -1.575,4.697 -1.651,4.847" />
      <path
         id="STROKE_c700a833-0e4d-453c-8c11-255c4f79e817"
         opacity="1"
         fill="none"
         stroke="#1c7aa2"
         stroke-width="1.727"
         stroke-opacity="1"
         stroke-linecap="round"
         stroke-linejoin="round"
         d="m 24.32,705.209 0.04,-0.062 q 0.16,-0.034 0.624,-0.219 0.464,-0.185 2.719,-0.904 2.256,-0.719 4.109,-1.142 1.852,-0.423 3.98,-0.622 2.128,-0.2 3.86,0.184 l 0.218,0.235" />
      <path
         id="STROKE_0debc652-dbe5-4a13-ace9-415c16ca6999"
         opacity="1"
         fill="none"
         stroke="#1c7aa2"
         stroke-width="1.837"
         stroke-opacity="1"
         stroke-linecap="round"
         stroke-linejoin="round"
         d="m 43.228,704.533 q -0.035,-0.071 -0.133,-0.116 -0.097,-0.045 -0.186,-0.071 -0.089,-0.026 -0.203,0.037 -0.113,0.062 -0.256,0.276 -0.142,0.215 -0.79,1.571 -0.647,1.356 -3.121,6.912 0.024,0.032 0.563,-0.761 0.538,-0.794 1.138,-1.478 0.601,-0.684 1.214,-1.047 0.614,-0.363 1.387,-0.331 0.193,0.257 -0.126,1.082 -0.318,0.826 -0.975,1.784 -0.657,0.958 -0.839,2.002 0.008,0.044 0.22,-0.032 0.213,-0.075 0.399,-0.205" />
      <path
         id="STROKE_2412d4d3-45b9-4bb9-b43b-9cc179801b7a"
         opacity="1"
         fill="none"
         stroke="#1c7aa2"
         stroke-width="1.837"
         stroke-opacity="1"
         stroke-linecap="round"
         stroke-linejoin="round"
         d="m 46.074,709.55 q -0.011,0.076 -0.204,0.726 -0.193,0.65 -0.447,1.539 -0.255,0.89 -0.362,1.472 -0.107,0.583 -0.141,0.746" />
      <path
         id="STROKE_54964d7d-0449-41fb-8e3a-e7b13692ed3e"
         opacity="1"
         fill="none"
         stroke="#1c7aa2"
         stroke-width="1.837"
         stroke-opacity="1"
         stroke-linecap="round"
         stroke-linejoin="round"
         d="m 45.827,708.151 q 0.101,-0.003 0.343,0.094 0.243,0.098 0.479,0.214" />
      <path
         id="STROKE_96d68e7e-e788-4b93-8c70-729b8f4e0d95"
         opacity="1"
         fill="none"
         stroke="#1c7aa2"
         stroke-width="1.837"
         stroke-opacity="1"
         stroke-linecap="round"
         stroke-linejoin="round"
         d="m 53.486,709.222 q -0.502,-0.039 -0.779,-0.043 -0.276,-0.003 -0.645,0.082 -0.369,0.085 -0.53,0.197 -0.161,0.111 -0.305,0.543 0.174,0.272 0.167,0.278 -0.007,0.005 0.393,0.2 0.4,0.195 0.789,0.539 0.39,0.345 0.495,0.532 0.105,0.187 0.192,0.45 0.087,0.263 0.101,0.515 0.014,0.253 -0.146,0.671 -0.161,0.417 -0.756,0.658 -0.596,0.241 -1.067,0.257 -0.472,0.016 -1.677,-0.522 l -0.186,-0.123" />
      <path
         id="STROKE_197ba6ce-0e95-4800-98b3-b7a03ea262d5"
         opacity="1"
         fill="none"
         stroke="#1c7aa2"
         stroke-width="1.837"
         stroke-opacity="1"
         stroke-linecap="round"
         stroke-linejoin="round"
         d="m 65.393,708.479 q -0.038,10e-4 -0.409,0.153 -0.372,0.153 -0.625,0.323 -0.252,0.171 -0.423,0.344 -0.17,0.172 -0.445,0.733 -0.276,0.56 -0.338,1.161 -0.062,0.601 0.033,1.047 0.095,0.445 0.439,0.72 0.345,0.275 0.813,0.366 0.469,0.09 0.955,-0.017 0.486,-0.107 1.139,-0.673 0.652,-0.567 0.984,-2.191 -0.123,0.03 -0.3,0.267 -0.176,0.237 -0.32,0.62 -0.145,0.382 -0.217,0.825 -0.073,0.444 -0.003,0.731 0.07,0.288 0.177,0.477 0.106,0.19 0.899,0.524 0.793,0.333 1.521,0.213 0.729,-0.121 1.109,-0.302 0.38,-0.18 0.893,-0.601 0.514,-0.42 0.938,-1.161 0.424,-0.74 0.454,-1.829 0.031,-1.089 -0.005,-1.319" />
      <path
         id="STROKE_0a1d8515-4712-4c74-95a1-2bfb219bbad7"
         opacity="1"
         fill="none"
         stroke="#1c7aa2"
         stroke-width="1.837"
         stroke-opacity="1"
         stroke-linecap="round"
         stroke-linejoin="round"
         d="m 76.204,709.467 q 0.305,-0.017 0.323,-0.015 0.018,10e-4 0.529,-0.057 0.512,-0.057 0.96,-0.003 0.448,0.054 0.747,0.405 0.299,0.35 0.392,0.797 0.094,0.448 0.033,0.818 -0.062,0.371 -0.274,0.708 -0.212,0.337 -0.56,0.488 -0.348,0.151 -0.685,0.172 -0.336,0.022 -0.362,0.028 -0.027,0.006 -1.323,0.01 -0.069,0.097 -0.121,0.495 -0.053,0.398 0.153,0.774 0.205,0.377 0.725,0.62 0.519,0.243 1.158,0.24 0.639,-0.003 1.011,-0.113 0.373,-0.11 0.605,-0.237 0.232,-0.127 0.5,-0.299" />
      <path
         id="STROKE_67dfdef1-0eba-4beb-ba9f-5368b488511f"
         opacity="1"
         fill="none"
         stroke="#1c7aa2"
         stroke-width="1.837"
         stroke-opacity="1"
         stroke-linecap="round"
         stroke-linejoin="round"
         d="m 86.404,710.187 q -0.151,-0.118 -0.966,-0.245 -0.815,-0.127 -1.29,-0.081 -0.474,0.045 -0.701,0.262 -0.227,0.217 -0.286,0.477 -0.059,0.26 0.168,0.546 0.227,0.285 1.126,0.613 0.898,0.328 1.386,0.548 0.487,0.221 0.659,0.356 0.172,0.135 0.273,0.261 0.1,0.126 0.117,0.165 0.017,0.039 0.059,0.23 0.042,0.191 -0.023,0.467 -0.065,0.277 -0.275,0.527 -0.211,0.251 -0.381,0.387 -0.169,0.136 -0.989,0.432 -0.819,0.296 -2.208,0.235 -1.389,-0.062 -1.798,-0.14" />
      <path
         id="STROKE_ef34fbbf-06b8-4aed-8794-eed5c319dec1"
         opacity="1"
         fill="none"
         stroke="#1c7aa2"
         stroke-width="1.837"
         stroke-opacity="1"
         stroke-linecap="round"
         stroke-linejoin="round"
         d="m 28.484,726.577 0.014,0.014 q 0.07,0.089 -0.222,2.414 -0.292,2.326 -0.731,4.171 -0.44,1.846 -0.519,3.089 l 0.099,-0.022" />
      <path
         id="STROKE_31fc0dc2-a9f6-4167-9f92-eeb2b5b36962"
         opacity="1"
         fill="none"
         stroke="#1c7aa2"
         stroke-width="1.837"
         stroke-opacity="1"
         stroke-linecap="round"
         stroke-linejoin="round"
         d="m 26.998,725.261 q 0.116,-0.491 0.524,-0.966 0.408,-0.475 1.326,-0.817 0.918,-0.341 2.177,-0.391 1.259,-0.05 1.646,0.192 0.386,0.242 0.58,0.958 0.193,0.716 0.03,1.511 -0.163,0.794 -1.137,1.762 -0.974,0.968 -1.77,1.504 -0.797,0.537 -1.454,0.681 -0.656,0.145 -0.695,0.017 -0.038,-0.127 -0.051,-0.34" />
      <path
         id="STROKE_37189573-94a6-49b6-85c4-4819dd22b74a"
         opacity="1"
         fill="none"
         stroke="#1c7aa2"
         stroke-width="1.837"
         stroke-opacity="1"
         stroke-linecap="round"
         stroke-linejoin="round"
         d="m 35.796,724.869 0.133,-0.22 q 0.008,-0.034 0.518,-0.438 0.51,-0.404 1.051,-0.58 0.54,-0.176 0.959,-0.205 0.419,-0.029 0.783,0.133 0.363,0.161 0.558,0.44 0.196,0.278 0.274,0.867 0.079,0.589 0.04,1.051 -0.039,0.462 -0.5,1.352 -0.46,0.891 -1.717,1.463 -0.142,-0.08 -0.42,-0.428 -0.278,-0.347 -0.486,-0.5 -0.209,-0.154 -0.321,-0.157 -0.112,-0.004 -0.189,0.031 -0.077,0.035 -0.076,0.05 0.002,0.015 -0.017,0.015 -0.018,-0.001 -0.024,0.435 -0.005,0.435 0.321,0.941 0.327,0.506 1.001,0.93 0.675,0.425 1.31,0.343 0.636,-0.083 0.897,-0.194" />
      <path
         id="STROKE_377ab9c0-0fcd-456b-b14f-2e81c2ca6c5c"
         opacity="1"
         fill="none"
         stroke="#1c7aa2"
         stroke-width="1.837"
         stroke-opacity="1"
         stroke-linecap="round"
         stroke-linejoin="round"
         d="m 42.88,725.241 q -0.104,0.143 -0.294,3.97 -0.044,0.012 0.257,-1.193 0.301,-1.205 0.651,-2.027 0.35,-0.821 0.591,-1.195 0.242,-0.374 0.509,-0.624 0.267,-0.249 0.672,-0.31 0.406,-0.061 0.661,-0.04" />
      <path
         id="STROKE_f92638d3-27ce-4b2a-8176-742b12a835bb"
         opacity="1"
         fill="none"
         stroke="#1c7aa2"
         stroke-width="1.837"
         stroke-opacity="1"
         stroke-linecap="round"
         stroke-linejoin="round"
         d="m 47.244,728.285 0.105,0.072 q 0.229,0.046 2.275,0.164 2.046,0.118 2.217,0.155" />
      <path
         id="STROKE_06959b3b-017f-44cc-908b-a1d0eb53cca1"
         opacity="1"
         fill="none"
         stroke="#1c7aa2"
         stroke-width="1.837"
         stroke-opacity="1"
         stroke-linecap="round"
         stroke-linejoin="round"
         d="m 61.851,723.679 q -0.021,-0.032 -0.281,-0.211 -0.26,-0.179 -0.505,-0.259 -0.246,-0.08 -0.609,-0.068 -0.363,0.013 -0.805,0.416 -0.442,0.403 -0.741,1.241 -0.299,0.837 -0.343,1.314 -0.045,0.476 0.049,0.789 0.094,0.313 0.298,0.516 0.204,0.202 0.594,0.278 0.389,0.076 0.635,0.036 0.245,-0.039 0.702,-0.369 0.456,-0.33 0.67,-0.575 0.213,-0.245 0.299,-0.459 0.086,-0.214 0.022,-0.44 l -0.028,0.002 q -0.062,0.154 -0.057,0.16 -0.081,0.207 0.159,2.067 0.24,1.861 0.412,3.185 0.172,1.325 0.141,2.325 -0.031,1 -0.325,1.775 -0.294,0.776 -1.051,1.584 -0.757,0.807 -1.689,1.27 -0.932,0.463 -1.43,0.601 -0.497,0.137 -1.41,0.211 -0.914,0.074 -1.781,-0.062 -0.867,-0.135 -1.403,-0.45 -0.537,-0.315 -0.745,-0.61 -0.208,-0.295 0.01,-0.692 0.218,-0.398 0.414,-0.619" />
      <path
         id="STROKE_95302c39-e8b8-450a-a923-e35633fa1ed7"
         opacity="1"
         fill="none"
         stroke="#1c7aa2"
         stroke-width="1.837"
         stroke-opacity="1"
         stroke-linecap="round"
         stroke-linejoin="round"
         d="m 66.01,725.672 -0.044,0.019 q -0.128,0 0.425,1.774 0.003,0.045 -0.174,-0.235 -0.176,-0.28 -0.264,-0.742 -0.088,-0.461 -0.067,-0.809 0.022,-0.347 0.15,-0.683 0.127,-0.335 0.33,-0.584 0.203,-0.249 0.638,-0.477 0.435,-0.228 1.019,-0.292 0.585,-0.064 0.912,-0.09" />
      <path
         id="STROKE_c7193131-7133-4703-9d4d-a8caa547dcb7"
         opacity="1"
         fill="none"
         stroke="#1c7aa2"
         stroke-width="1.837"
         stroke-opacity="1"
         stroke-linecap="round"
         stroke-linejoin="round"
         d="m 73.073,723.988 q -0.036,0.011 -0.411,-0.022 -0.375,-0.032 -0.563,-0.028 -0.189,0.003 -0.394,0.027 -0.204,0.023 -0.411,0.233 -0.207,0.21 -0.276,0.529 -0.069,0.319 -0.062,0.638 0.006,0.318 0.259,0.771 0.253,0.453 0.794,0.798 0.542,0.345 1.232,0.456 0.691,0.112 1.064,0.062 0.373,-0.05 0.623,-0.226 0.251,-0.177 0.403,-0.408 0.153,-0.231 0.167,-0.29 0.015,-0.058 0.064,-0.275 0.049,-0.217 -0.049,-0.659 -0.099,-0.443 -2.305,-1.208 -0.096,0.204 -0.135,0.361" />
      <path
         id="STROKE_2019542a-3e12-4471-9d58-513e1c7d8e89"
         opacity="1"
         fill="none"
         stroke="#1c7aa2"
         stroke-width="1.837"
         stroke-opacity="1"
         stroke-linecap="round"
         stroke-linejoin="round"
         d="m 79.42,725.221 q -0.03,-0.045 -0.088,-0.126 -0.058,-0.081 -0.284,-0.169 -0.226,-0.089 -0.501,-0.076 -0.275,0.014 -0.513,0.277 -0.239,0.264 -0.306,0.659 -0.067,0.395 0.067,0.88 0.135,0.485 0.523,0.691 0.387,0.206 0.964,0.262 0.578,0.056 0.968,-0.054 0.391,-0.11 0.732,-0.464 0.341,-0.354 0.507,-0.682 0.165,-0.328 0.334,-0.916 0.168,-0.588 0.253,-0.859" />
      <path
         id="STROKE_af7526fd-e6de-463d-8fab-20888f50b645"
         opacity="1"
         fill="none"
         stroke="#1c7aa2"
         stroke-width="1.759"
         stroke-opacity="1"
         stroke-linecap="round"
         stroke-linejoin="round"
         d="m 84.406,725.632 q -0.045,0.28 -0.612,2.358 -0.568,2.078 -3.03,8.39 l -0.111,0.005" />
      <path
         id="STROKE_762b52b4-e674-4aff-81cf-384fea7bc60b"
         opacity="1"
         fill="none"
         stroke="#1c7aa2"
         stroke-width="1.837"
         stroke-opacity="1"
         stroke-linecap="round"
         stroke-linejoin="round"
         d="m 84.343,725.241 q -0.018,-0.232 0.145,-0.515 0.162,-0.283 0.352,-0.417 0.189,-0.134 0.771,-0.319 0.583,-0.185 1.271,-0.218 0.688,-0.032 1.109,-0.006 0.421,0.025 0.711,0.194 0.29,0.17 0.398,0.322 0.107,0.152 0.16,0.355 0.053,0.203 0.054,0.298 0.001,0.095 -0.066,0.389 -0.066,0.294 -1.006,1.093 -0.94,0.799 -3.407,1.328 l -0.202,-0.096" />
      <path
         id="STROKE_9e4daad4-1cbe-45f7-a0db-ac08b9688df7"
         opacity="1"
         fill="none"
         stroke="#1c7aa2"
         stroke-width="1.837"
         stroke-opacity="1"
         stroke-linecap="round"
         stroke-linejoin="round"
         d="m 94.021,720.058 q 0.029,-0.096 0.046,-0.245 0.018,-0.149 0.802,-0.549 0.785,-0.401 2.125,-0.676 1.341,-0.274 2.124,-0.307 0.782,-0.033 1.155,0.038 0.372,0.07 0.535,0.242 0.164,0.172 0.094,0.579 -0.069,0.407 -0.989,1.112 -0.919,0.704 -1.838,1.436 -0.919,0.733 -1.693,1.47 -0.775,0.737 -1.278,1.326 -0.504,0.589 -0.679,0.945 -0.174,0.356 -0.185,0.537 -0.01,0.182 0.042,0.289 0.051,0.107 0.816,0.335 0.765,0.229 1.767,0.255 1.001,0.027 2.434,0.05 1.433,0.023 1.664,0.054" />
    </g>
  </g>
</svg>
